<svg width="40" height="44" viewBox="0 0 40 44" fill="none" xmlns="http://www.w3.org/2000/svg">
<g style="mix-blend-mode:hard-light">
<path fill-rule="evenodd" clip-rule="evenodd" d="M24.378 8.26386L17.6026 0.36142C16.6219 2.22337 15.671 5.50956 17.038 7.88186C16.3746 7.94093 15.7405 8.05316 15.25 8.24999C12.1209 9.50572 8.68751 12.75 7.00001 19.5C6.51137 21.4545 5.63191 22.3905 4.58665 23.5029C3.60068 24.5523 2.46717 25.7586 1.375 28.125C-0.874992 33 5.19724 37.875 9.62501 33.4472C12.1144 30.9579 14.2903 29.9302 16.1171 29.0674C18.7465 27.8256 20.6527 26.9253 21.7295 22.5C22.2418 24.5642 22.0369 29.4358 17.1189 32.4082C12.2008 35.3807 11.1762 41.6422 11.2787 43.5H39.25C39.25 25.8624 36.9149 10.6236 24.378 8.26386Z" fill="#185227"/>
</g>
</svg>
