<svg width="30" height="40" viewBox="0 0 30 40" fill="none" xmlns="http://www.w3.org/2000/svg">
<g style="mix-blend-mode:hard-light">
<path d="M21.8214 7.92857C21.8214 10.0831 20.9042 12.0233 19.439 13.3802L23.2143 16.0451V20.9286H19.5184C19.6967 23.1922 21.149 25.4576 23.0284 27.4336C25.0229 29.5307 27.4225 31.222 29.0161 32.1326L29.25 32.2663V39.5H0V32.2663L0.233936 32.1326C1.82753 31.222 4.22713 29.5307 6.22161 27.4336C8.10098 25.4576 9.55335 23.1922 9.73158 20.9286H6.03571V16.0451L9.55176 13.5632C7.96755 12.2009 6.96429 10.1819 6.96429 7.92857C6.96429 3.82589 10.2902 0.5 14.3929 0.5C18.4955 0.5 21.8214 3.82589 21.8214 7.92857Z" fill="#185227"/>
</g>
</svg>
