<svg width="30" height="42" viewBox="0 0 30 42" fill="none" xmlns="http://www.w3.org/2000/svg">
<g style="mix-blend-mode:hard-light">
<path d="M16.5 22.8582H13.5C13.5 17.3496 15.1708 11.8502 18.8671 7.82474C19.4463 7.03634 19.7885 6.06293 19.7885 5.00962C19.7885 2.38094 17.6575 0.25 15.0288 0.25C12.4002 0.25 10.2692 2.38094 10.2692 5.00962C10.2692 6.30652 10.788 7.48229 11.6292 8.34075C8.65606 10.4603 3.12981 16.1417 3.12981 23.2548C3.12981 30.4332 8.75791 33.3394 11.7104 33.936L0.75 35.875V41.5L29.3077 41.5V35.875L18.0874 33.9071C21.0733 33.2499 26.5312 30.3239 26.5312 23.2548C26.5312 18.6261 24.375 14.5 21.75 11.5C18.8671 13.75 16.5 19 16.5 22.8582Z" fill="#F9F9F9" stroke="black" stroke-width="1"/>
</g>
</svg>
