<svg width="43" height="44" viewBox="0 0 43 44" fill="none" xmlns="http://www.w3.org/2000/svg">
<g style="mix-blend-mode:hard-light">
<path fill-rule="evenodd" clip-rule="evenodd" d="M19.5 0H24L24.1172 3.75H28.5V8.25H24.2578L24.4639 13.3447C24.5461 13.2479 24.6308 13.1529 24.7181 13.0601C28.8155 8.70531 34.8905 6.38791 39.375 10.125C43.875 13.875 43.875 22.5 37.679 27.4884C34.1692 30.3141 31.0255 33.0382 31.1804 37.0224L37.4846 37.875V43.5H6.01541V37.875L12.3196 37.0224C12.4745 33.0382 9.33076 30.3141 5.82096 27.4884C-0.375001 22.5 -0.375001 13.875 4.125 10.125C8.60951 6.38791 14.6845 8.70531 18.7819 13.0601C18.8692 13.1529 18.9539 13.2479 19.0361 13.3447L19.2422 8.25H15V3.75H19.3828L19.5 0ZM15.261 17.2299C18.011 21.7343 18.375 27 18.375 29.2899C16.9966 29.2924 11.8004 27.0064 9.04923 23.2535C7.06861 20.5517 6.55215 16.5431 8.25 14.9869C9.94784 13.4306 13.5423 14.4146 15.261 17.2299ZM28.239 17.2299C25.489 21.7343 25.125 27 25.125 29.2899C26.5034 29.2924 31.6996 27.0064 34.4508 23.2535C36.4314 20.5517 36.9478 16.5431 35.25 14.9869C33.5522 13.4306 29.9577 14.4146 28.239 17.2299Z" fill="#185227"/>
</g>
</svg>
