<svg width="48" height="44" viewBox="0 0 48 44" fill="none" xmlns="http://www.w3.org/2000/svg">
<g style="mix-blend-mode:hard-light">
<path d="M18.5961 8.00116C20.0022 7.46021 21 6.09663 21 4.5C21 2.42893 19.3211 0.75 17.25 0.75C15.1789 0.75 13.5 2.42893 13.5 4.5C13.5 6.41389 14.9338 7.9929 16.7858 8.22155L15.1135 21.75L7.05165 14.748C7.78879 14.0633 8.25 13.0855 8.25 12C8.25 9.92894 6.57107 8.25001 4.5 8.25001C2.42893 8.25001 0.75 9.92894 0.75 12C0.75 14.0711 2.42893 15.75 4.5 15.75C4.86458 15.75 5.21701 15.698 5.55027 15.6009L9.75 30L14.093 37.1067L9.75 37.875V43.5L38.3077 43.5V37.875L33.909 37.1035L38.25 30L42.4497 15.6009C42.783 15.698 43.1354 15.75 43.5 15.75C45.5711 15.75 47.25 14.0711 47.25 12C47.25 9.92894 45.5711 8.25001 43.5 8.25001C41.4289 8.25001 39.75 9.92894 39.75 12C39.75 13.0855 40.2112 14.0633 40.9484 14.748L32.8865 21.75L31.2142 8.22155C33.0662 7.9929 34.5 6.41389 34.5 4.5C34.5 2.42893 32.8211 0.75 30.75 0.75C28.6789 0.75 27 2.42893 27 4.5C27 6.09663 27.9978 7.46021 29.4039 8.00116L24 20.25L18.5961 8.00116Z" fill="#F9F9F9" stroke="black" stroke-width="1"/>
</g>
</svg>
